<?xml version="1.0" encoding="UTF-8"?>
<!DOCTYPE svg PUBLIC "-//W3C//DTD SVG 1.1//EN" "http://www.w3.org/Graphics/SVG/1.1/DTD/svg11.dtd">
<!-- Creator: CorelDRAW -->
<svg xmlns="http://www.w3.org/2000/svg" xml:space="preserve" width="269.875mm" height="58.7376mm" style="shape-rendering:geometricPrecision; text-rendering:geometricPrecision; image-rendering:optimizeQuality; fill-rule:evenodd; clip-rule:evenodd"
viewBox="0 0 266.28 57.955"
 xmlns:xlink="http://www.w3.org/1999/xlink">
 <defs>
  <style type="text/css">
   <![CDATA[
    .str0 {stroke:#2B2A29;stroke-width:1.0442}
    .fil0 {fill:#FEFEFE;fill-rule:nonzero}
    .fil1 {fill:#2B2A29;fill-rule:nonzero}
   ]]>
  </style>
 </defs>
 <g id="Layer_x0020_1">
  <metadata id="CorelCorpID_0Corel-Layer"/>
  <rect id="_41360992" class="fil0 str0" x="0.522149" y="0.522149" width="265.235" height="56.9107"/>
 </g>
 <g id="Layer_x0020_1_0">
  <metadata id="CorelCorpID_1Corel-Layer"/>
  <path id="_41359768" class="fil1" d="M7.21754 20.5961c0,-3.24942 1.30113,-6.01004 3.90359,-8.27289 2.50961,-2.15411 5.50714,-3.23127 8.98478,-3.23127l4.63185 0c2.81163,0 5.53802,0.760432 8.17146,2.281 1.08436,0.669756 1.95964,1.37582 2.62574,2.118l-6.0802 5.46688c-0.999207,-1.6292 -2.35461,-2.56141 -4.08188,-2.81499 -0.209077,-0.0361124 -0.426047,-0.0542672 -0.635124,-0.0542672l-4.63185 0c-2.26936,0 -3.98114,0.742178 -5.12746,2.22663 -0.511197,0.742178 -0.774541,1.50251 -0.774541,2.2809 0,1.3848 1.26245,2.57059 3.77206,3.55717 0.782237,0.316822 2.11455,0.760234 3.98894,1.32146 4.53881,1.3849 7.71453,2.72441 9.53465,4.03689 2.96654,2.1179 4.46146,4.91483 4.49244,8.38142 0,3.21321 -1.33221,5.95578 -3.99673,8.21852 -2.63344,2.19042 -5.74719,3.28563 -9.34876,3.28563l-4.62406 0c-2.93556,0 -5.77818,-0.760333 -8.53554,-2.2809 -1.14632,-0.669756 -2.06028,-1.37582 -2.71869,-2.118l5.98735 -5.41271c1.06107,1.55688 2.5405,2.47103 4.44577,2.76072 0.302219,0.036211 0.573259,0.0542672 0.821112,0.0542672l4.62406 0c2.45525,0 4.29875,-0.760234 5.53802,-2.2809 0.542179,-0.715045 0.821014,-1.45732 0.821014,-2.22663 0,-1.55678 -1.26255,-2.8511 -3.77206,-3.87389 -0.363985,-0.181055 -2.55599,-0.905177 -6.5759,-2.17237 -4.63185,-1.45722 -7.77649,-3.20404 -9.4418,-5.25879 -1.33221,-1.69255 -1.99822,-3.69283 -1.99822,-5.99189zm48.7422 28.8011l-6.99416 0 0 -33.2c0,-2.37148 0.883076,-4.26304 2.63344,-5.67517 1.1774,-0.950268 2.49412,-1.43009 3.95026,-1.43009l10.3015 0 0 6.99662 -9.89104 0 0 33.3086zm-5.67744 -40.3052l-3.7178 6.99662 -6.85474 0 0 -6.99662 10.5725 0zm26.8692 23.8681l0 9.44052 17.7913 0 3.26866 6.99662 -21.4705 0c-2.20749,0 -3.97345,-0.968522 -5.30566,-2.91445 -0.851995,-1.27636 -1.27035,-2.67024 -1.27035,-4.19081l0 -26.0947c0,-2.37148 0.875281,-4.26304 2.63344,-5.67517 1.1774,-0.950268 2.49412,-1.43009 3.94256,-1.43009l21.4705 0 -3.26866 6.99662 -17.7913 0 0 9.86588 16.3817 0 0 7.0056 -16.3817 0zm33.1352 9.44052l16.4282 0 3.22209 6.99662 -20.0608 0c-2.23847,0 -4.01222,-0.986578 -5.30566,-2.96881 -0.821014,-1.24006 -1.23157,-2.61588 -1.23157,-4.13644l0 -33.2 6.94778 0 0 33.3086zm29.3166 0l16.4282 0 3.22209 6.99662 -20.0607 0c-2.23847,0 -4.01222,-0.986578 -5.30575,-2.96881 -0.820915,-1.24006 -1.23147,-2.61588 -1.23147,-4.13644l0 -33.2 6.94768 0 0 33.3086zm44.3352 1.63828l-15.1114 0 3.72549 -6.99662 9.30239 0 -5.9021 -19.786 -9.6199 32.141 -7.44339 0 10.1234 -33.734c1.47932,-4.69757 3.79525,-7.06904 6.93989,-7.10526 3.14474,0.036211 5.44507,2.40769 6.90131,7.10526l10.162 33.734 -7.44339 0 -1.63423 -5.35834zm19.8826 -27.9503l0 33.3086 -6.93989 0 0 -33.2c0,-2.40759 0.875182,-4.3174 2.62565,-5.72943 1.1851,-0.914156 2.48633,-1.37582 3.90379,-1.37582l9.39523 0c4.20581,0 7.58281,1.4664 10.1233,4.399 2.14553,2.51622 3.22219,5.60265 3.22219,9.2865l0 1.53872c0,4.58893 -1.55688,8.16426 -4.67833,10.7076 -1.1773,0.959444 -2.47853,1.68357 -3.90369,2.17237l9.34876 12.201 -8.66716 0 -8.62079 -11.4045 -5.35203 0 3.7178 -6.99662 4.80995 0c2.84262,0 4.76348,-1.14958 5.76259,-3.44853 0.395065,-0.959543 0.596446,-2.0365 0.596446,-3.23137l0 -1.53872c0,-3.18598 -1.23157,-5.24971 -3.67912,-6.20906 -0.821014,-0.316921 -1.71179,-0.479821 -2.67991,-0.479821l-8.98478 0zm26.9157 4.50753c0,-3.24942 1.30123,-6.01004 3.90369,-8.27289 2.50951,-2.15411 5.50704,-3.23127 8.98478,-3.23127l4.63176 0c2.81163,0 5.53802,0.760432 8.17146,2.281 1.08446,0.669756 1.95964,1.37582 2.62574,2.118l-6.0802 5.46688c-0.999109,-1.6292 -2.35461,-2.56141 -4.08178,-2.81499 -0.209175,-0.0361124 -0.426047,-0.0542672 -0.635222,-0.0542672l-4.63176 0c-2.26945,0 -3.98114,0.742178 -5.12746,2.22663 -0.511296,0.742178 -0.77464,1.50251 -0.77464,2.2809 0,1.3848 1.26255,2.57059 3.77206,3.55717 0.782336,0.316822 2.11455,0.760234 3.98894,1.32146 4.53891,1.3849 7.71453,2.72441 9.53475,4.03689 2.96644,2.1179 4.46136,4.91483 4.49234,8.38142 0,3.21321 -1.33221,5.95578 -3.99663,8.21852 -2.63354,2.19042 -5.74719,3.28563 -9.34886,3.28563l-4.62406 0c-2.93546,0 -5.77818,-0.760333 -8.53554,-2.2809 -1.14632,-0.669756 -2.06028,-1.37582 -2.71869,-2.118l5.98735 -5.41271c1.06107,1.55688 2.5405,2.47103 4.44587,2.76072 0.30212,0.036211 0.57316,0.0542672 0.821014,0.0542672l4.62406 0c2.45534,0 4.29875,-0.760234 5.53802,-2.2809 0.542179,-0.715045 0.821014,-1.45732 0.821014,-2.22663 0,-1.55678 -1.26245,-2.8511 -3.77206,-3.87389 -0.363985,-0.181055 -2.55599,-0.905177 -6.5759,-2.17237 -4.63176,-1.45722 -7.77639,-3.20404 -9.44171,-5.25879 -1.33221,-1.69255 -1.99832,-3.69283 -1.99832,-5.99189z"/>
 </g>
</svg>
