<?xml version="1.0" encoding="UTF-8"?>
<!DOCTYPE svg PUBLIC "-//W3C//DTD SVG 1.1//EN" "http://www.w3.org/Graphics/SVG/1.1/DTD/svg11.dtd">
<!-- Creator: CorelDRAW -->
<svg xmlns="http://www.w3.org/2000/svg" xml:space="preserve" width="274.5mm" height="63.5mm" style="shape-rendering:geometricPrecision; text-rendering:geometricPrecision; image-rendering:optimizeQuality; fill-rule:evenodd; clip-rule:evenodd"
viewBox="0 0 274.5 63.5"
 xmlns:xlink="http://www.w3.org/1999/xlink">
 <defs>
  <style type="text/css">
   <![CDATA[
    .str0 {stroke:#2B2A29;stroke-width:1.0583}
    .fil1 {fill:none}
    .fil0 {fill:#2B2A29;fill-rule:nonzero}
   ]]>
  </style>
 </defs>
 <g id="Layer_x0020_1">
  <metadata id="CorelCorpID_0Corel-Layer"/>
  <g id="_224926856">
   <path id="_41359768" class="fil0" d="M9.6648 23.2626c0,-3.2933 1.3187,-6.0912 3.9563,-8.3846 2.5435,-2.1832 5.5815,-3.2749 9.1061,-3.2749l4.6944 0c2.8496,0 5.6128,0.7707 8.2818,2.3118 1.099,0.6788 1.9861,1.3944 2.6612,2.1466l-6.1623 5.5407c-1.0127,-1.6512 -2.3864,-2.596 -4.137,-2.853 -0.2119,-0.0366 -0.4318,-0.055 -0.6437,-0.055l-4.6944 0c-2.3,0 -4.0349,0.7522 -5.1967,2.2567 -0.5181,0.7522 -0.785,1.5228 -0.785,2.3117 0,1.4035 1.2795,2.6053 3.823,3.6052 0.7928,0.3211 2.1431,0.7705 4.0428,1.3393 4.6001,1.4036 7.8187,2.7612 9.6634,4.0914 3.0066,2.1465 4.5217,4.9812 4.5531,8.4946 0,3.2566 -1.3502,6.0362 -4.0507,8.3295 -2.669,2.22 -5.8248,3.33 -9.475,3.33l-4.6865 0c-2.9752,0 -5.8562,-0.7706 -8.6508,-2.3117 -1.1618,-0.6788 -2.0881,-1.3944 -2.7554,-2.1466l6.0682 -5.4858c1.0754,1.5779 2.5748,2.5044 4.5058,2.798 0.3063,0.0367 0.581,0.055 0.8322,0.055l4.6865 0c2.4884,0 4.3568,-0.7705 5.6128,-2.3117 0.5495,-0.7247 0.8321,-1.477 0.8321,-2.2567 0,-1.5778 -1.2796,-2.8896 -3.823,-3.9262 -0.3689,-0.1835 -2.5905,-0.9174 -6.6647,-2.2017 -4.6944,-1.4769 -7.8815,-3.2473 -9.5693,-5.3298 -1.3502,-1.7154 -2.0252,-3.7427 -2.0252,-6.0728zm49.4004 29.19l-7.0886 0 0 -33.6483c0,-2.4035 0.895,-4.3206 2.669,-5.7518 1.1933,-0.9631 2.5278,-1.4494 4.0036,-1.4494l10.4406 0 0 7.0911 -10.0246 0 0 33.7584zm-5.7541 -40.8495l-3.768 7.0911 -6.9473 0 0 -7.0911 10.7153 0zm27.232 24.1904l0 9.568 18.0315 0 3.3128 7.0911 -21.7604 0c-2.2373,0 -4.0271,-0.9816 -5.3773,-2.9538 -0.8635,-1.2936 -1.2875,-2.7063 -1.2875,-4.2474l0 -26.4471c0,-2.4035 0.8871,-4.3206 2.669,-5.7518 1.1933,-0.9631 2.5278,-1.4494 3.9958,-1.4494l21.7604 0 -3.3128 7.0911 -18.0315 0 0 9.9991 16.6029 0 0 7.1002 -16.6029 0zm33.5826 9.568l16.65 0 3.2656 7.0911 -20.3317 0c-2.2687,0 -4.0664,-0.9999 -5.3773,-3.0089 -0.8321,-1.2568 -1.2482,-2.6512 -1.2482,-4.1923l0 -33.6483 7.0416 0 0 33.7584zm29.7125 0l16.65 0 3.2656 7.0911 -20.3316 0c-2.2687,0 -4.0664,-0.9999 -5.3774,-3.0089 -0.832,-1.2568 -1.2481,-2.6512 -1.2481,-4.1923l0 -33.6483 7.0415 0 0 33.7584zm44.9339 1.6604l-15.3155 0 3.7758 -7.0911 9.428 0 -5.9818 -20.0532 -9.7498 32.575 -7.5439 0 10.2601 -34.1895c1.4993,-4.761 3.8465,-7.1645 7.0336,-7.2012 3.1872,0.0367 5.5186,2.4402 6.9945,7.2012l10.2992 34.1895 -7.5439 0 -1.6563 -5.4307zm20.1511 -28.3277l0 33.7584 -7.0336 0 0 -33.6483c0,-2.4401 0.887,-4.3757 2.6611,-5.8068 1.2011,-0.9265 2.5199,-1.3944 3.9565,-1.3944l9.5221 0c4.2626,0 7.6852,1.4862 10.26,4.4584 2.1745,2.5502 3.2657,5.6783 3.2657,9.4119l0 1.5595c0,4.6509 -1.5779,8.2745 -4.7415,10.8522 -1.1932,0.9724 -2.512,1.7063 -3.9564,2.2017l9.475 12.3658 -8.7842 0 -8.7372 -11.5585 -5.4243 0 3.768 -7.0911 4.8749 0c2.881,0 4.8278,-1.1651 5.8404,-3.4951 0.4004,-0.9725 0.6045,-2.064 0.6045,-3.275l0 -1.5595c0,-3.229 -1.2482,-5.3206 -3.7288,-6.2929 -0.8321,-0.3212 -1.7349,-0.4863 -2.7161,-0.4863l-9.1061 0zm27.2791 4.5684c0,-3.2933 1.3188,-6.0912 3.9564,-8.3846 2.5434,-2.1832 5.5814,-3.2749 9.1061,-3.2749l4.6943 0c2.8496,0 5.6128,0.7707 8.2818,2.3118 1.0991,0.6788 1.9861,1.3944 2.6612,2.1466l-6.1623 5.5407c-1.0126,-1.6512 -2.3864,-2.596 -4.1369,-2.853 -0.212,-0.0366 -0.4318,-0.055 -0.6438,-0.055l-4.6943 0c-2.3001,0 -4.0349,0.7522 -5.1967,2.2567 -0.5182,0.7522 -0.7851,1.5228 -0.7851,2.3117 0,1.4035 1.2796,2.6053 3.823,3.6052 0.7929,0.3211 2.1431,0.7705 4.0428,1.3393 4.6002,1.4036 7.8187,2.7612 9.6635,4.0914 3.0065,2.1465 4.5216,4.9812 4.553,8.4946 0,3.2566 -1.3502,6.0362 -4.0506,8.3295 -2.6691,2.22 -5.8248,3.33 -9.4751,3.33l-4.6865 0c-2.9751,0 -5.8562,-0.7706 -8.6508,-2.3117 -1.1618,-0.6788 -2.0881,-1.3944 -2.7554,-2.1466l6.0682 -5.4858c1.0754,1.5779 2.5748,2.5044 4.5059,2.798 0.3062,0.0367 0.5809,0.055 0.8321,0.055l4.6865 0c2.4885,0 4.3568,-0.7705 5.6128,-2.3117 0.5495,-0.7247 0.8321,-1.477 0.8321,-2.2567 0,-1.5778 -1.2795,-2.8896 -3.823,-3.9262 -0.3689,-0.1835 -2.5905,-0.9174 -6.6647,-2.2017 -4.6943,-1.4769 -7.8814,-3.2473 -9.5692,-5.3298 -1.3502,-1.7154 -2.0253,-3.7427 -2.0253,-6.0728z"/>
   <rect id="_41360992" class="fil1 str0" x="2.879" y="2.9176" width="268.817" height="57.6792"/>
  </g>
 </g>
</svg>
